<svg xmlns="http://www.w3.org/2000/svg" viewBox="270 0 340 315" role="img" aria-labelledby="title desc"><title id="title">Kubernetes</title><desc id="desc">사용자가 제공한 Kubernetes 로고와 워드마크를 벡터로 추적한 이미지</desc><path d="M434,0 L416,7 L317,55 L310,62 L305,73 L280,182 L280,198 L286,210 L356,297 L363,304 L371,308 L503,309 L514,304 L522,296 L592,209 L598,195 L597,181 L572,73 L567,62 L557,53 L457,5 L443,0 Z" fill="#fff" fill-rule="evenodd" /><path d="M433,12 L326,63 L320,68 L316,77 L291,186 L291,194 L296,204 L366,291 L372,296 L378,298 L499,298 L507,295 L512,290 L584,200 L586,195 L586,185 L560,73 L553,64 L447,13 Z M437,48 L440,48 L445,52 L444,75 L446,80 L452,80 L467,84 L484,93 L496,104 L503,102 L518,88 L524,88 L528,94 L522,102 L510,109 L506,116 L513,128 L518,144 L519,171 L527,175 L542,176 L547,180 L548,185 L543,190 L538,190 L522,184 L515,185 L514,190 L503,209 L494,219 L480,229 L480,234 L491,253 L491,257 L487,261 L482,261 L478,258 L474,245 L471,239 L467,236 L442,241 L426,240 L410,236 L405,241 L399,258 L396,261 L390,261 L387,258 L386,253 L397,235 L397,229 L387,222 L376,211 L369,201 L362,185 L360,186 L356,184 L340,190 L334,190 L329,185 L330,180 L336,176 L351,175 L359,170 L359,144 L364,128 L371,116 L367,109 L356,103 L350,97 L351,90 L354,88 L359,88 L375,103 L381,104 L393,93 L410,84 L425,80 L431,80 L433,76 L432,53 Z M419,220 L430,223 L448,223 L457,221 L458,219 L443,192 L437,190 L435,191 Z M498,182 L469,177 L462,178 L462,186 L474,213 L489,199 Z M380,182 L382,189 L390,201 L404,213 L416,184 L415,178 L408,177 Z M428,157 L431,167 L437,170 L447,167 L449,157 L443,150 L434,150 Z M385,128 L383,129 L380,135 L376,148 L376,166 L404,158 L409,155 L409,150 Z M493,127 L468,150 L468,154 L471,157 L502,166 L501,147 Z M447,97 L449,131 L451,133 L456,133 L482,114 L474,107 L465,102 Z M430,97 L420,99 L406,105 L399,110 L395,115 L419,132 L426,133 L428,131 Z" fill="#336ee5" fill-rule="evenodd" /><path d="M438,49 L433,54 L435,75 L431,81 L414,84 L404,88 L392,95 L381,105 L373,103 L358,89 L355,89 L351,92 L352,98 L366,107 L370,111 L372,117 L365,129 L361,142 L359,155 L360,171 L353,176 L334,178 L331,181 L331,186 L335,189 L354,183 L362,184 L364,186 L367,195 L375,208 L383,217 L398,228 L398,236 L388,252 L388,258 L391,260 L397,259 L404,240 L411,234 L429,239 L448,239 L467,234 L473,240 L479,257 L482,260 L486,260 L489,258 L489,251 L479,235 L479,229 L489,222 L500,211 L507,201 L515,184 L524,183 L542,189 L546,186 L547,183 L543,178 L525,176 L517,171 L518,153 L516,141 L505,115 L511,107 L525,98 L526,92 L523,89 L519,89 L504,103 L496,105 L490,99 L475,89 L459,83 L446,81 L442,74 L444,53 L443,51 Z M418,219 L433,192 L436,189 L441,189 L445,193 L460,220 L455,223 L436,225 L420,222 Z M379,181 L406,176 L414,176 L417,179 L418,182 L404,214 L399,211 L387,199 L380,188 L378,183 Z M498,181 L499,184 L492,197 L480,210 L473,214 L461,187 L460,179 L466,175 Z M434,149 L444,149 L450,157 L449,166 L439,172 L430,168 L428,165 L427,157 Z M493,126 L499,136 L503,150 L502,167 L472,159 L466,153 L467,149 Z M384,126 L410,149 L411,154 L405,159 L375,167 L375,146 L379,134 Z M446,97 L451,96 L466,101 L484,114 L457,134 L452,135 L447,129 Z M430,96 L430,129 L429,132 L425,135 L420,134 L393,114 L411,101 L422,97 Z" fill="#fff" fill-rule="evenodd" /></svg>